<svg xmlns="http://www.w3.org/2000/svg" viewBox="0 0 410 100" width="410" height="100">
<g transform="translate(0,2)">
  <rect x="7.0" y="7.0" width="82.0" height="82.0" rx="14.0" fill="none" stroke="#1E6FD9" stroke-width="11.0"/>
  <line x1="48.0" y1="7.0" x2="48.0" y2="89.0" stroke="#1E6FD9" stroke-width="6.5"/>
  <line x1="7.0" y1="48.0" x2="89.0" y2="48.0" stroke="#1E6FD9" stroke-width="6.5"/>
  <path d="M22.0 34.0 L34.0 22.0" stroke="#8FC1F2" stroke-width="5.0" stroke-linecap="round"/>
</g>
<path transform="translate(120,56)" d="M-0.729814871016692 0.0 15.343550834597876 -36.4H25.48729893778452L41.57680121396054 0.0H30.889735963581185L18.314770864946887 -31.36669195751138H22.356488619119876L9.781523520485583 0.0ZM8.056449165402123 -7.08628224582701 10.708488619119878 -14.667629742033384H28.485229135053107L31.153405159332323 -7.08628224582701Z M46.12987253414264 0.0V-36.4H56.433210925644914V-8.160528072837632H73.78499544764794V0.0Z M79.44987253414264 0.0V-36.4H89.75321092564492V-8.160528072837632H107.10499544764795V0.0Z M112.76987253414264 0.0V-36.4H121.24421547799696L136.28831259484065 -11.63553262518968H131.82341426403642L146.51605766312593 -36.4H154.99040060698027L155.0782640364188 0.0H145.59260394537176L145.50474051593324 -21.97248558421851H147.12751138088012L136.16458573596358 -3.5825948406676784H131.5956874051593L120.29744461305008 -21.97248558421851H122.25553262518967V0.0Z M182.34103241487634 0.7190440060698028Q177.97115739424433 0.7190440060698028 174.26219326464872 -0.6849559939301972Q170.5532291350531 -2.088955993930197 167.83757056145674 -4.64681942336874Q165.1219119878604 -7.2046828528072835 163.61211684370255 -10.65949828574829Q162.10232169954475 -14.114313718689298 162.10232169954475 -18.21690704530674Q162.10232169954475 -22.319500371924185 163.61223559678018 -25.749723738964477Q165.12214949401562 -29.179947106004764 167.83974177307067 -31.747823987359908Q170.55733405212575 -34.315700868715055 174.258149006336 -35.71737243739243Q177.95896396054627 -37.1190440060698 182.31959028831562 -37.1190440060698Q186.71090743550835 -37.1190440060698 190.39174125469214 -35.72024236437147Q194.0725750738759 -34.32144072267315 196.78673479296504 -31.75876219961969Q199.50089451205417 -29.196083676566225 201.0108084092896 -25.76029161066551Q202.52072230652504 -22.324499544764794 202.52072230652504 -18.215293388250597Q202.52072230652504 -14.106087231736396 201.01092716236724 -10.647316756991112Q199.5011320182094 -7.188546282245826 196.78685354604266 -4.633552779786335Q194.0725750738759 -2.0785592773268426 190.39174125469214 -0.67975763562852Q186.71090743550835 0.7190440060698028 182.34103241487634 0.7190440060698028ZM182.3179844631169 -7.776801213960546Q184.40673141122912 -7.776801213960546 186.18845326813914 -8.516160526910536Q187.97017512504917 -9.255519839860524 189.30482352610576 -10.624823652858941Q190.63947192716236 -11.994127465857359 191.38449620637329 -13.914910871245741Q192.1295204855842 -15.835694276634122 192.1295204855842 -18.204871417527986Q192.1295204855842 -20.57404855842185 191.38630930418918 -22.488574772092807Q190.64309812279416 -24.403100985763764 189.3076774763715 -25.773299163664586Q187.9722568299489 -27.143497341565407 186.19109994578776 -27.88334806380243Q184.40994306162662 -28.623198786039453 182.32119611351436 -28.623198786039453Q180.2324491654021 -28.623198786039453 178.44593938722272 -27.882824700808058Q176.65942960904331 -27.142450615576664 175.321228879303 -25.77129991702609Q173.98302814956267 -24.40014921847552 173.23827583502413 -22.484356466358193Q172.49352352048558 -20.568563714240863 172.49352352048558 -18.205325863190236Q172.49352352048558 -15.842088012139603 173.2375322113395 -13.921304606751223Q173.9815409021934 -12.000521201362842 175.31840019313006 -10.625617201591892Q176.65525948406676 -9.250713201820941 178.4422484995357 -8.513757207890745Q180.22923751500463 -7.776801213960546 182.3179844631169 -7.776801213960546Z M209.56987253414263 0.0V-36.4H218.04421547799694L238.08918968133534 -12.150245827010622H234.0869256449165V-36.4H244.17508345978754V0.0H235.7007405159332L215.6557663125948 -24.249754172989377H219.65803034901364V0.0Z M260.79223368740514 0.0V-28.23947192716237H249.63199999999998V-36.4H282.25580576631256V-28.23947192716237H271.0955720789074V0.0Z" fill="#132A43"/>
<path transform="translate(122,83)" d="M1.246604508996315 0.0V-9.24H5.039896206373292Q6.2645374376761325 -9.24 7.145125233037069 -8.846332820290485Q8.025713028398005 -8.452665640580967 8.500287079991327 -7.71323815304574Q8.974861131584651 -6.973810665510513 8.974861131584651 -5.950583177975287Q8.974861131584651 -4.938848818556254 8.500287079991327 -4.200274766962931Q8.025713028398005 -3.461700715369608 7.145125233037069 -3.067180099718188Q6.2645374376761325 -2.672659484066768 5.039896206373292 -2.672659484066768H2.1942717970951655L2.959642878820724 -3.4656824626056797V0.0ZM2.959642878820724 -3.2833862562323866 2.1942717970951655 -4.121129850422719H4.96832061565142Q6.097831996531541 -4.121129850422719 6.672373943203989 -4.60116646433991Q7.246915889876437 -5.0812030782571 7.246915889876437 -5.950583177975287Q7.246915889876437 -6.831456405809668 6.672373943203989 -7.311493019726859Q6.097831996531541 -7.79152963364405 4.96832061565142 -7.79152963364405H2.1942717970951655L2.959642878820724 -8.629273227834382Z M15.229804508996315 0.0V-9.24H16.942842878820723V-1.4501772382397573H21.769151181443746V0.0Z M26.223090049859092 0.0 30.377221331021026 -9.24H32.07193908519402L36.23756349447214 0.0H34.44191138088012L30.87256184695426 -8.324763277693474H31.558277953609362L27.988928419683504 0.0ZM28.14277866897897 -2.139083893344895 28.601477953609365 -3.486619900281812H33.58743815304574L34.05763056579232 -2.139083893344895Z M44.68245497507045 0.13074810318664645Q43.60130687188381 0.13074810318664645 42.61085189681336 -0.17922440927812705Q41.6203969217429 -0.4891969217429005 41.035728202904835 -0.9805556904400607L41.63666871883807 -2.308519184912205Q42.19323056579233 -1.8682535443312378 43.010777129850425 -1.5797879037502711Q43.828323693908516 -1.2913222631693042 44.685868718838066 -1.2913222631693042Q45.4105037936267 -1.2913222631693042 45.857540407543894 -1.4484138521569478Q46.304577021461085 -1.6055054411445915 46.51532204639064 -1.8786092347712986Q46.72606707132018 -2.1517130283980057 46.72606707132018 -2.4940030782570997Q46.72606707132018 -2.9172 46.425880815087794 -3.171584717103837Q46.12569455885541 -3.425969434207674 45.641561738564924 -3.582435074788641Q45.15742891827444 -3.7389007153696077 44.570256405809666 -3.868340407543898Q43.98308389334489 -3.997780099718188 43.395057944938216 -4.176833535660091Q42.80703199653154 -4.355886971601994 42.32289917624106 -4.642247279427704Q41.838766355950575 -4.928607587253414 41.53858009971819 -5.400621331021028Q41.2383938434858 -5.872635074788641 41.2383938434858 -6.611835074788641Q41.2383938434858 -7.366396921742901 41.639741946672444 -7.992145024929547Q42.04109004985909 -8.617893128116194 42.86591907652287 -8.99432061565142Q43.69074810318664 -9.370748103186646 44.95544430955994 -9.370748103186646Q45.7892061565142 -9.370748103186646 46.60806113158465 -9.161254975070452Q47.426916106655106 -8.95176184695426 48.03798482549317 -8.554054975070454L47.49155118144375 -7.2163052243659225Q46.874109950140905 -7.5939846087145035 46.21667025796661 -7.7713311727726Q45.559230565792326 -7.948677736830695 44.940537437676134 -7.948677736830695Q44.23888861911988 -7.948677736830695 43.79099856926078 -7.777532711901149Q43.34310851940169 -7.606387686971601 43.138963494472144 -7.324977021461088Q42.9348184695426 -7.043566355950574 42.9348184695426 -6.689783177975287Q42.9348184695426 -6.268293128116194 43.235004725774985 -6.01476184695426Q43.53519098200737 -5.761230565792326 44.019323802297855 -5.611364925211359Q44.50345662258834 -5.461499284630392 45.09148257099501 -5.327166464339909Q45.679508519401686 -5.192833644049426 46.26668103186646 -5.019526772165619Q46.85385354433124 -4.846219900281812 47.33798636462172 -4.5656061565142Q47.822119184912204 -4.284992412746586 48.12230544114459 -3.813832104920876Q48.42249169737698 -3.3426717970951656 48.42249169737698 -2.6166717970951656Q48.42249169737698 -1.875309950140906 48.015397030132235 -1.2495618469542595Q47.60830236288749 -0.6238137437676132 46.77858020810753 -0.2465328202904834Q45.948858053327555 0.13074810318664645 44.68245497507045 0.13074810318664645Z M56.394686971602 0.0V-7.789822761760243H53.3324V-9.24H61.1700123130284V-7.789822761760243H58.1077253414264V0.0Z M71.19167431104317 0.13074810318664645Q70.11729364701587 0.13074810318664645 69.20376590003082 -0.22565189681335357Q68.29023815304575 -0.5820518968133536 67.61937097333623 -1.2239587686971602Q66.94850379362671 -1.8658656405809668 66.576343485801 -2.730160237472834Q66.2041831779753 -3.5944548343647016 66.2041831779753 -4.620804668173794Q66.2041831779753 -5.647154501982887 66.57634913769465 -6.510278672440144Q66.94851509741402 -7.373402842897401 67.62083847047273 -8.017333877434629Q68.29316184353144 -8.661264911971857 69.20260439410143 -9.016006507579252Q70.11204694467142 -9.370748103186646 71.18832061565142 -9.370748103186646Q72.26605497507046 -9.370748103186646 73.17146542751036 -9.018050587411997Q74.07687587995026 -8.665353071637348 74.74675444286146 -8.025124521325472Q75.41663300577264 -7.384895971013595 75.78879896549199 -6.5178055445789855Q76.16096492521136 -5.650715118144375 76.16096492521136 -4.619655355362175Q76.16096492521136 -3.588595592579976 75.78880461738565 -2.7214840525223747Q75.41664430955994 -1.8543725124647734 74.7467600947551 -1.2145097204137125Q74.07687587995026 -0.5746469283626517 73.17146542751036 -0.22194941258800266Q72.26605497507046 0.13074810318664645 71.19167431104317 0.13074810318664645ZM71.18824418855215 -1.367563494472144Q71.88826256232387 -1.367563494472144 72.47793677529688 -1.608127133770888Q73.06761098826988 -1.848690773069632 73.50571687501505 -2.2876431320366586Q73.94382276176025 -2.726595491003685 74.18842122263169 -3.3199689082126396Q74.43301968350315 -3.9133423254215938 74.43301968350315 -4.623469623582247Q74.43301968350315 -5.333596921742901 74.18971258534138 -5.922513710092454Q73.94640548717962 -6.511430498442007 73.5077495755766 -6.9510198608148555Q73.06909366397358 -7.390609223187704 72.47875454024799 -7.63152286435778Q71.88841541652242 -7.872436505527856 71.1883970427507 -7.872436505527856Q70.48837866897898 -7.872436505527856 69.89529430188745 -7.631150103744076Q69.30220993479591 -7.389863701960298 68.8615739337047 -6.949595915270509Q68.4209379326135 -6.5093281285807185 68.1765331761485 -5.919509259546003Q67.93212841968351 -5.329690390511288 67.93212841968351 -4.6237932984422905Q67.93212841968351 -3.9178962063732925 68.17600353682737 -3.3245227891643383Q68.41987865397122 -2.7311493719553845 68.85955922726743 -2.2882083300271177Q69.29923980056363 -1.8452672880988508 69.89373280767202 -1.6064153912854975Q70.48822581478042 -1.367563494472144 71.18824418855215 -1.367563494472144Z M85.10711445913722 0.0 81.07349004985909 -9.24H82.93218339475395L86.53862913505311 -0.8871298504227183H85.46487938434858L89.11775261218295 -9.24H90.82396349447214L86.8018322133102 0.0Z M96.40980450899632 0.0V-9.24H103.15056492521137V-7.798357121179277H98.1160153912855V-1.441642878820724H103.33365805332755V0.0ZM97.98526728809885 -3.989245740299155V-5.394247387817039H102.58637866897898V-3.989245740299155ZM98.67087322783439 -9.9924 100.45924574029917 -11.805578668978972H102.40078174723608L100.0992030782571 -9.9924Z M122.01607431104317 0.13074810318664645Q120.94169364701587 0.13074810318664645 120.02816590003081 -0.22565189681335357Q119.11463815304575 -0.5820518968133536 118.44377097333623 -1.2239587686971602Q117.77290379362671 -1.8658656405809668 117.400743485801 -2.730160237472834Q117.02858317797529 -3.5944548343647016 117.02858317797529 -4.620804668173794Q117.02858317797529 -5.647154501982887 117.40074913769465 -6.510278672440144Q117.77291509741401 -7.373402842897401 118.44523847047273 -8.017333877434629Q119.11756184353143 -8.661264911971857 120.02700439410143 -9.016006507579252Q120.93644694467142 -9.370748103186646 122.01272061565142 -9.370748103186646Q123.09045497507046 -9.370748103186646 123.99586542751035 -9.018050587411997Q124.90127587995026 -8.665353071637348 125.57115444286146 -8.025124521325472Q126.24103300577264 -7.384895971013595 126.61319896549199 -6.5178055445789855Q126.98536492521136 -5.650715118144375 126.98536492521136 -4.619655355362175Q126.98536492521136 -3.588595592579976 126.61320461738565 -2.7214840525223747Q126.24104430955994 -1.8543725124647734 125.5711600947551 -1.2145097204137125Q124.90127587995026 -0.5746469283626517 123.99586542751035 -0.22194941258800266Q123.09045497507046 0.13074810318664645 122.01607431104317 0.13074810318664645ZM122.01264418855214 -1.367563494472144Q122.71266256232387 -1.367563494472144 123.30233677529688 -1.608127133770888Q123.89201098826987 -1.848690773069632 124.33011687501505 -2.2876431320366586Q124.76822276176024 -2.726595491003685 125.01282122263169 -3.3199689082126396Q125.25741968350314 -3.9133423254215938 125.25741968350314 -4.623469623582247Q125.25741968350314 -5.333596921742901 125.01411258534138 -5.922513710092454Q124.77080548717962 -6.511430498442007 124.3321495755766 -6.9510198608148555Q123.89349366397357 -7.390609223187704 123.30315454024799 -7.63152286435778Q122.71281541652242 -7.872436505527856 122.01279704275069 -7.872436505527856Q121.31277866897898 -7.872436505527856 120.71969430188744 -7.631150103744076Q120.12660993479591 -7.389863701960298 119.6859739337047 -6.949595915270509Q119.2453379326135 -6.5093281285807185 119.0009331761485 -5.919509259546003Q118.7565284196835 -5.329690390511288 118.7565284196835 -4.6237932984422905Q118.7565284196835 -3.9178962063732925 119.00040353682736 -3.3245227891643383Q119.24427865397122 -2.7311493719553845 119.68395922726742 -2.2882083300271177Q120.12363980056362 -1.8452672880988508 120.71813280767202 -1.6064153912854975Q121.31262581478042 -1.367563494472144 122.01264418855214 -1.367563494472144Z M134.73236041621504 -2.1753831779752875 134.6412123130284 -4.2150078040320835 139.48220143073922 -9.24H141.41497415998265L137.39284287882072 -4.959786256232387L136.43368246260567 -3.915053327552569ZM133.2114045089963 0.0V-9.24H134.9176153912855V0.0ZM139.6511846087145 0.0 136.10447938434856 -4.211028918274442 137.2391085194017 -5.464458053327553 141.65723980056362 0.0Z M147.2342045089963 0.0V-9.24H148.64569169737698L154.43673886841535 -2.1226933448948624H153.73145024929545V-9.24H155.43424738781704V0.0H154.02276019943636L148.231713028398 -7.117306655105137H148.93700164751786V0.0Z M161.0126900498591 0.0 165.16682133102103 -9.24H166.861539085194L171.02716349447215 0.0H169.23151138088014L165.66216184695426 -8.324763277693474H166.34787795360936L162.7785284196835 0.0ZM162.93237866897897 -2.139083893344895 163.39107795360937 -3.486619900281812H168.37703815304573L168.84723056579233 -2.139083893344895ZM164.90976184695427 -9.9924 166.69813435941904 -11.805578668978972H168.63967036635594L166.338091697377 -9.9924Z M183.3426900498591 0.0 187.49682133102104 -9.24H189.19153908519402L193.35716349447216 0.0H191.56151138088012L187.99216184695428 -8.324763277693474H188.67787795360937L185.10852841968352 0.0ZM185.26237866897898 -2.139083893344895 185.72107795360938 -3.486619900281812H190.70703815304574L191.17723056579234 -2.139083893344895Z M206.98620450899634 0.0V-9.24H211.02301374376765Q212.52144123130287 -9.24 213.6560152828962 -8.661760307825709Q214.7905893344895 -8.08352061565142 215.4276030782571 -7.048174051593323Q216.06461682202473 -6.012827487535227 216.06461682202473 -4.62Q216.06461682202473 -3.22887938434858 215.4276030782571 -2.19267938434858Q214.7905893344895 -1.15647938434858 213.6560152828962 -0.57823969217429Q212.52144123130287 0.0 211.02301374376765 0.0ZM208.69924287882074 -1.4518841101235638H210.93698625623242Q211.9762594840668 -1.4518841101235638 212.73560143073922 -1.8463482115759808Q213.4949433774117 -2.240812313028398 213.9158074788641 -2.9541817472360714Q214.33667158031653 -3.6675511814437454 214.33667158031653 -4.62Q214.33667158031653 -5.585648818556255 213.9158074788641 -6.2924182527639285Q213.4949433774117 -6.999187686971601 212.73560143073922 -7.39365178842402Q211.9762594840668 -7.788115889876437 210.93698625623242 -7.788115889876437H208.69924287882074Z M225.00951445913725 0.0 220.97589004985912 -9.24H222.834583394754L226.44102913505313 -0.8871298504227183H225.36727938434862L229.02015261218298 -9.24H230.72636349447217L226.70423221331023 0.0Z M236.31220450899633 0.0V-9.24H243.05296492521137V-7.798357121179277H238.01841539128552V-1.441642878820724H243.23605805332758V0.0ZM237.88766728809887 -3.989245740299155V-5.394247387817039H242.488778668979V-3.989245740299155Z M249.55620450899633 0.0V-9.24H253.33242748753526Q255.1817924127466 -9.24 256.23312677216563 -8.366012204639063Q257.2844611315847 -7.492024409278127 257.2844611315847 -5.950583177975287Q257.2844611315847 -4.938848818556254 256.80988707999137 -4.206874766962931Q256.33531302839805 -3.474900715369608 255.4547252330371 -3.082940407543898Q254.57413743767614 -2.6909800997181876 253.34949620637332 -2.6909800997181876H250.50387179709517L251.26924287882073 -3.4656824626056797V0.0ZM255.59270214610885 0.0 253.25334337741168 -3.3545068718838067H255.0937161066551L257.4479817472361 0.0ZM251.26924287882073 -3.2833862562323866 250.50387179709517 -4.109636722306525H253.27792061565142Q254.40743199653156 -4.109636722306525 254.98197394320403 -4.595419900281812Q255.55651588987647 -5.0812030782571 255.55651588987647 -5.950583177975287Q255.55651588987647 -6.831456405809668 254.98197394320403 -7.311493019726859Q254.40743199653156 -7.79152963364405 253.27792061565142 -7.79152963364405H250.50387179709517L251.26924287882073 -8.629273227834382Z M263.60540450899634 0.0V-9.24H270.3461649252114V-7.798357121179277H265.3116153912855V-1.441642878820724H270.52925805332757V0.0ZM265.1808672880989 -3.989245740299155V-5.394247387817039H269.781978668979V-3.989245740299155Z" fill="#5C6F84"/>
</svg>